<svg id="Layer_5" enable-background="new 0 0 64 64" height="512" viewBox="0 0 64 64" width="512" xmlns="http://www.w3.org/2000/svg"><g><g><g><path d="m51 54v4c0 2.21-1.79 4-4 4h-30c-2.21 0-4-1.79-4-4v-4z" fill="#b27946"/></g><g><path d="m13 54c0-2.21 1.79-4 4-4h.95 9.05 1 8 1 9.07.93c2.21 0 4 1.79 4 4z" fill="#d3a06c"/></g><g><path d="m27 41v9h-9.05-.95-2v-17-7.79c2.45 4.07 6.91 6.79 12 6.79z" fill="#cf9e76"/></g><g><path d="m27 22h10v28h-10z" fill="#fcd770"/></g><g><path d="m49 33v17h-2-.93-9.07v-9-9c3.86 0 7.36-1.57 9.9-4.1.8-.81 1.51-1.71 2.1-2.69z" fill="#cf9e76"/></g><g><path d="m15 33v17h-2c-3.31 0-6-2.69-6-6v-11z" fill="#aab2bd"/></g><g><path d="m57 33v11c0 3.31-2.69 6-6 6h-2v-17z" fill="#aab2bd"/></g><g><path d="m15 25.21v7.79h-8v-3c0-3.31 2.69-6 6-6h1.35c.2.41.41.82.65 1.21z" fill="#ccd1d9"/></g><g><path d="m57 30v3h-8v-7.79c.24-.39.45-.8.65-1.21h1.35c3.31 0 6 2.69 6 6z" fill="#ccd1d9"/></g><g><path d="m27 32c-5.09 0-9.55-2.72-12-6.79-.24-.39-.45-.8-.65-1.21-.87-1.82-1.35-3.86-1.35-6 0-.11 0-.23.01-.34.08-2.08.96-3.95 2.33-5.32.62-.62 1.34-1.13 2.14-1.52 1.06-.53 2.26-.82 3.52-.82v4c0 3.73 2.55 6.86 6 7.75v9.25z" fill="#dfb28b"/></g><g><path d="m50.99 17.66c.01.11.01.23.01.34 0 2.14-.48 4.18-1.35 6-.2.41-.41.82-.65 1.21-.59.98-1.3 1.88-2.1 2.69-2.54 2.53-6.04 4.1-9.9 4.1v-1-9.25c3.45-.89 6-4.02 6-7.75v-4c1.26 0 2.46.29 3.52.82 2.56 1.25 4.35 3.83 4.47 6.84z" fill="#dfb28b"/></g><g><path d="m37 21.75c-.3.08-.61.14-.93.18-.35.05-.71.07-1.07.07h-6c-.36 0-.72-.02-1.07-.07-.32-.04-.63-.1-.93-.18-3.45-.89-6-4.02-6-7.75v-4h4 14 4v4c0 3.73-2.55 6.86-6 7.75z" fill="#ecc19c"/></g><g><path d="m13.83 7.17 3.65 3.65c-.8.39-1.52.9-2.14 1.52-1.37 1.37-2.25 3.24-2.33 5.32l-4.84-4.83c-.75-.76-1.17-1.76-1.17-2.83s.42-2.07 1.17-2.83c.76-.75 1.76-1.17 2.83-1.17s2.07.42 2.83 1.17z" fill="#969faa"/></g><g><path d="m55.83 7.17c.75.76 1.17 1.76 1.17 2.83s-.42 2.07-1.17 2.83l-4.84 4.83c-.12-3.01-1.91-5.59-4.47-6.84l3.65-3.65c.76-.75 1.76-1.17 2.83-1.17s2.07.42 2.83 1.17z" fill="#969faa"/></g></g><path d="m51.123 23.006c.55-1.546.865-3.202.874-4.932l4.539-4.538c.943-.945 1.464-2.2 1.464-3.536 0-1.335-.52-2.591-1.464-3.535-.945-.945-2.201-1.465-3.536-1.465-1.336 0-2.591.521-3.535 1.465l-3.169 3.169c-1.022-.404-2.132-.634-3.296-.634h-3v-3c0-2.757-2.243-5-5-5h-6c-2.757 0-5 2.243-5 5v3h-3c-1.164 0-2.274.229-3.296.634l-3.168-3.169c-.945-.944-2.2-1.465-3.536-1.465-1.335 0-2.591.52-3.536 1.465-.944.944-1.464 2.2-1.464 3.535 0 1.336.521 2.591 1.465 3.535l4.539 4.539c.008 1.73.324 3.386.874 4.932-3.803.067-6.878 3.176-6.878 6.994v14c0 3.86 3.14 7 7 7h.026c-.635.838-1.026 1.87-1.026 3v4c0 2.757 2.243 5 5 5h30c2.757 0 5-2.243 5-5v-4c0-1.13-.391-2.162-1.026-3h.026c3.86 0 7-3.14 7-7v-14c0-3.818-3.075-6.927-6.877-6.994zm-3.123 25.994h-1-.93-8.07v-16.051c3.945-.262 7.471-2.05 10-4.786zm-32 0v-20.837c2.529 2.735 6.055 4.524 10 4.786v16.051h-8.054-.946zm4-37.92v2.92c0 3.909 2.51 7.235 6 8.475v8.474c-6.701-.513-12-6.118-12-12.949 0-3.519 2.613-6.432 6-6.92zm30 6.92c0 6.831-5.299 12.436-12 12.949v-8.474c3.49-1.24 6-4.565 6-8.475v-2.92c3.387.488 6 3.401 6 6.92zm-19.414 8-2.586 2.586v-5.172zm-2.172 5 3.586-3.586 3.586 3.586-3.586 3.586zm2.172 5-2.586 2.586v-5.172zm5.414-2.586v5.172l-2.586-2.586zm-2.586-7.414 2.586-2.586v5.172zm-1.414-1.414-1.586-1.586h3.172zm-4 18.828 2.586 2.586-2.586 2.586zm.414-2.414 3.586-3.586 3.586 3.586-3.586 3.586zm7.586 2.414v5.172l-2.586-2.586zm6-29.414c0 3.86-3.14 7-7 7h-6c-3.86 0-7-3.14-7-7v-3h20zm-10 33.414 1.586 1.586h-3.172zm18.879-39.535c1.132-1.134 3.108-1.134 4.242 0 .567.566.879 1.32.879 2.121s-.312 1.555-.879 2.121l-3.461 3.461c-.569-2.035-1.832-3.78-3.523-4.961zm-24.879-1.879c0-1.654 1.346-3 3-3h6c1.654 0 3 1.346 3 3v3h-12zm-18 4c0-.801.312-1.555.878-2.121 1.134-1.134 3.11-1.134 4.243 0l2.742 2.742c-1.691 1.181-2.954 2.926-3.523 4.961l-3.461-3.461c-.567-.566-.879-1.32-.879-2.121zm5 15h.744c.081.153.17.301.256.451v6.549h-6v-2c0-2.757 2.243-5 5-5zm-5 19v-10h6v15h-1c-2.757 0-5-2.243-5-5zm39 17h-30c-1.654 0-3-1.346-3-3v-3h36v3c0 1.654-1.346 3-3 3zm2.816-8h-35.632c.414-1.161 1.514-2 2.816-2h.946 28.124.93c1.302 0 2.402.839 2.816 2zm1.184-4h-1v-15h6v10c0 2.757-2.243 5-5 5zm5-17h-6v-6.549c.086-.15.175-.298.256-.451h.744c2.757 0 5 2.243 5 5z"/></g></svg>