<svg id="filled_outline" height="512" viewBox="0 0 512 512" width="512" xmlns="http://www.w3.org/2000/svg" data-name="filled outline"><path d="m240 224.038h32v63.921h-32z" fill="#b0c0ea"/><path d="m240 224.038h16v63.921h-16z" fill="#475784"/><path d="m272 104h-32a32 32 0 0 1 -25.6-12.8 32 32 0 0 1 0-38.4l9.6-12.8 16 16 16-32 16 32 16-16 9.6 12.8a32 32 0 0 1 0 38.4 32 32 0 0 1 -25.6 12.8z" fill="#fcd73d"/><path d="m216 280h80v48h-80z" fill="#b0c0ea"/><path d="m216 280h56v48h-56z" fill="#475784"/><path d="m215.267 312h81.466a63.267 63.267 0 0 1 63.267 63.267v96.733a0 0 0 0 1 0 0h-208a0 0 0 0 1 0 0v-96.733a63.267 63.267 0 0 1 63.267-63.267z" fill="#83b277"/><path d="m280 312h-64.733a63.268 63.268 0 0 0 -63.267 63.267v96.733h208v-80a80 80 0 0 1 -80-80z" fill="#70a165"/><path d="m287.247 440a87.247 87.247 0 0 1 -87.247-87.247v-9.486a62.953 62.953 0 0 1 8.031-30.843 63.267 63.267 0 0 0 -56.031 62.843v96.733h208v-32z" fill="#57704c"/><path d="m296 232h-80l-9.033-36.133h98.066z" fill="#393e4f"/><path d="m289.058 172.231h-66.116l9.058-36.231h48z" fill="#f9bf3e"/><path d="m240 164.231 7.058-28.231h-15.058l-9.058 36.231h66.116l-2-8z" fill="#dc4a2c"/><path d="m88 144h42.234l14.176 42.53a8 8 0 0 0 7.59 5.47h40v-16h-34.234l-10.666-32h44.9v-16h-104z" fill="#b0c0ea"/><path d="m424 128h-104v16h44.9l-10.666 32h-34.234v16h40a8 8 0 0 0 7.59-5.47l14.177-42.53h42.233z" fill="#b0c0ea"/><path d="m184 168h144v32h-144z" fill="#475784"/><path d="m184 168h24v32h-24z" fill="#393e4f"/><rect fill="#b0c0ea" height="32" rx="16" width="240" x="136" y="456"/><path d="m152 456a16 16 0 0 0 -16 16 16 16 0 0 0 16 16h208a16 16 0 0 0 16-16h-208a16 16 0 0 1 -16-16z" fill="#475784"/><path d="m309.534 344a18.466 18.466 0 0 1 18.466 18.466 13.534 13.534 0 0 1 -13.534 13.534 18.466 18.466 0 0 1 -18.466-18.466 13.534 13.534 0 0 1 13.534-13.534z" fill="#fff"/><path d="m240 112h32a40 40 0 0 0 32-64l-9.6-12.8a8 8 0 0 0 -12.057-.857l-8.152 8.157-11.036-22.078a8 8 0 0 0 -14.31 0l-11.036 22.078-8.152-8.152a8 8 0 0 0 -12.057.852l-9.6 12.8a40 40 0 0 0 32 64zm-19.2-54.4 4.064-5.421 9.478 9.478a8 8 0 0 0 12.812-2.079l8.846-17.689 8.845 17.689a8 8 0 0 0 12.812 2.079l9.478-9.478 4.065 5.421a24 24 0 0 1 -19.2 38.4h-32a24 24 0 0 1 -19.2-38.4z"/><path d="m144.41 186.53a8 8 0 0 0 7.59 5.47h24v8a8 8 0 0 0 8 8h17.754l6.485 25.94a8 8 0 0 0 7.761 6.06h16v32h-16a8 8 0 0 0 -8 8v24.368a71.368 71.368 0 0 0 -64 70.9v74.109a24 24 0 0 0 8 46.623h208a24 24 0 0 0 8-46.624v-74.109a71.368 71.368 0 0 0 -64-70.9v-24.367a8 8 0 0 0 -8-8h-16v-32h16a8 8 0 0 0 7.761-6.06l6.485-25.94h17.754a8 8 0 0 0 8-8v-8h24a8 8 0 0 0 7.59-5.47l14.177-42.53h42.233v-16h-104v16h44.9l-10.666 32h-18.234v-8a8 8 0 0 0 -8-8h-33.754l-6.485-25.94a8 8 0 0 0 -7.761-6.06h-48a8 8 0 0 0 -7.761 6.06l-6.485 25.94h-33.754a8 8 0 0 0 -8 8v8h-18.234l-10.666-32h44.9v-16h-104v16h42.234zm215.59 293.47h-208a8 8 0 0 1 0-16h208a8 8 0 0 1 0 16zm-8-104.733v72.733h-192v-72.733a55.33 55.33 0 0 1 55.268-55.267h81.464a55.33 55.33 0 0 1 55.268 55.267zm-64-71.267h-64v-16h64zm-24-32h-16v-32h16zm25.754-48h-67.508l-4-16h75.508zm-51.508-80h35.508l4 16h-43.508zm-46.246 32h128v16h-128z"/><path d="m320 392h16v16h-16z"/><path d="m296.383 352a23.644 23.644 0 0 1 23.617 23.617h16a39.662 39.662 0 0 0 -39.617-39.617z"/></svg>