<svg height="418pt" viewBox="0 -35 418.61306 418" width="418pt" xmlns="http://www.w3.org/2000/svg"><path d="m341.332031 160.734375c0 88.601563-71.824219 160.425781-160.425781 160.425781s-160.425781-71.824218-160.425781-160.425781 71.824219-160.429687 160.425781-160.429687 160.425781 71.828124 160.425781 160.429687zm0 0" fill="#edebdc"/><path d="m148.003906 341.640625 131.890625-238.933594 131.890625 238.933594zm0 0" fill="#fc8c29"/><path d="m411.789062 348.464844h-263.789062c-2.417969 0-4.648438-1.273438-5.878906-3.355469-1.226563-2.082031-1.261719-4.652344-.097656-6.769531l131.894531-238.933594c2.398437-4.355469 9.550781-4.355469 11.953125 0l131.890625 238.933594c1.167969 2.117187 1.132812 4.6875-.097657 6.769531-1.226562 2.082031-3.460937 3.355469-5.875 3.355469zm-252.222656-13.652344h240.65625l-120.328125-217.980469zm0 0" fill="#4c241d"/><path d="m215.832031 341.640625h128.125l-64.0625-116.054687zm0 0" fill="#edebdc"/><path d="m343.953125 348.464844h-128.117187c-2.417969 0-4.652344-1.273438-5.878907-3.355469-1.226562-2.082031-1.265625-4.652344-.097656-6.769531l64.058594-116.054688c2.398437-4.351562 9.554687-4.351562 11.953125 0l64.058594 116.054688c1.167968 2.117187 1.132812 4.6875-.09375 6.769531-1.230469 2.082031-3.464844 3.355469-5.882813 3.355469zm-116.550781-13.652344h104.988281l-52.496094-95.101562zm0 0" fill="#4c241d"/><path d="m304.054688 223.265625c-8.546876 0-16.691407 1.699219-24.160157 4.71875l61.925781 112.183594c16.222657-11.734375 26.820313-30.765625 26.820313-52.320313 0-35.667968-28.914063-64.582031-64.585937-64.582031zm0 0" fill="#a9ba5a"/><g fill="#4c241d"><path d="m341.820312 346.992188c-.496093 0-.996093-.050782-1.488281-.164063-1.910156-.429687-3.542969-1.652344-4.488281-3.363281l-61.925781-112.179688c-.945313-1.710937-1.109375-3.746094-.457031-5.585937.652343-1.839844 2.066406-3.3125 3.875-4.042969 8.566406-3.460938 17.558593-5.214844 26.71875-5.214844 39.378906 0 71.410156 32.035156 71.410156 71.410156 0 22.796876-11.082032 44.425782-29.644532 57.847657-1.171874.847656-2.574218 1.292969-4 1.292969zm-51.976562-115.109376 53.972656 97.769532c11.386719-10.839844 18-25.972656 18-41.804688 0-31.84375-25.910156-57.753906-57.757812-57.753906-4.816406 0-9.570313.597656-14.214844 1.789062zm0 0"/><path d="m116.054688 348.464844c-3.769532 0-6.828126-3.054688-6.828126-6.824219v-307.199219c0-3.773437 3.058594-6.828125 6.828126-6.828125 3.769531 0 6.824218 3.054688 6.824218 6.828125v307.199219c0 3.769531-3.054687 6.824219-6.824218 6.824219zm0 0"/><path d="m279.894531 109.53125c-2.386719 0-4.613281-1.242188-5.855469-3.3125l-20.480468-34.132812c-1.941406-3.234376-.890625-7.425782 2.339844-9.363282 3.234374-1.941406 7.429687-.894531 9.367187 2.339844l13.402344 22.332031 8.539062-21.359375c1.398438-3.5 5.351563-5.195312 8.875-3.800781 3.5 1.402344 5.203125 5.371094 3.804688 8.875l-13.652344 34.132813c-.964844 2.40625-3.210937 4.0625-5.792969 4.265624-.183594.019532-.367187.023438-.546875.023438zm0 0"/></g><path d="m36.695312 68.574219h161.277344v47.785156h-161.277344l-29.867187-24.125zm0 0" fill="#bf7e68"/><path d="m197.972656 123.1875h-161.277344c-1.5625 0-3.078124-.535156-4.292968-1.519531l-29.867188-24.121094c-1.613281-1.304687-2.5468748-3.269531-2.535156-5.34375s.960938-4.03125 2.585938-5.316406l29.867187-23.664063c1.207031-.957031 2.699219-1.476562 4.242187-1.476562h161.277344c3.769532 0 6.828125 3.058594 6.828125 6.828125v47.785156c0 3.769531-3.058593 6.828125-6.828125 6.828125zm-158.863281-13.65625h152.039063v-34.132812h-152.078126l-21.316406 16.890624zm0 0" fill="#4c241d"/><path d="m115.625 143.667969h66.136719l29.863281 24.125-29.863281 23.660156h-65.707031zm0 0" fill="#bf7e68"/><path d="m181.761719 198.28125h-65.707031c-3.746094 0-6.792969-3.023438-6.828126-6.769531l-.425781-47.785157c-.019531-1.820312.695313-3.574218 1.976563-4.867187s3.027344-2.019531 4.847656-2.019531h66.136719c1.558593 0 3.074219.535156 4.289062 1.515625l29.867188 24.125c1.613281 1.300781 2.546875 3.265625 2.535156 5.34375-.011719 2.070312-.960937 4.027343-2.585937 5.316406l-29.867188 23.660156c-1.207031.957031-2.699219 1.480469-4.238281 1.480469zm-58.941407-13.65625h56.5625l21.316407-16.886719-21.351563-17.246093h-56.832031zm0 0" fill="#4c241d"/></svg>