<svg id="icons" enable-background="new 0 0 64 64" height="512" viewBox="0 0 64 64" width="512" xmlns="http://www.w3.org/2000/svg"><g><g><path d="m41 39.03v2.97c0 3.53-2.04 6.59-5 8.06-1.2.6-2.57.94-4 .94s-2.8-.34-4-.94c-2.95-1.46-4.98-4.5-5-8.01v-.05-2.97l3-2.03s3.01 1 6.5 1 5.5-1 5.5-1z" fill="#eac6bb"/></g><g><path d="m36 50.07v3.93c0 1.1-1.79 2-4 2s-4-.9-4-2v-3.93-.01c1.2.6 2.57.94 4 .94s2.8-.34 4-.94z" fill="#d3b1a9"/></g><g><path d="m28 54c0 1.1 1.79 2 4 2s4-.9 4-2h3c2.76 0 5 2.24 5 5v4h-24v-4c0-2.76 2.24-5 5-5z" fill="#5d9cec"/></g><g><path d="m41 36v3.03l-3-2.03s-2.01 1-5.5 1-6.5-1-6.5-1l-3 2.03v-3.03c0-4.28 3.36-7.78 7.59-7.99l.41.01h6v3.98c2.21 0 4 1.79 4 4z" fill="#965353"/></g><g><path d="m50 45c0 1.11 1.34 2 3 2s3-.89 3-2h3c1.66 0 3 1.34 3 3v4h-18v-4c0-1.66 1.34-3 3-3z" fill="#a0d468"/></g><g><path d="m54 32c2.39 0 4.54 1.05 6 2.71v.29c0 2.79-1.63 5.2-4 6.31-.91.44-1.92.681-3 .681s-2.09-.24-3-.681c-2.37-1.109-4-3.52-4-6.31v-3c1.66 0 3-1.34 3-3 0 1.66 1.34 3 3 3z" fill="#eac6bb"/></g><g><path d="m56 41.32v3.68c0 1.11-1.34 2-3 2s-3-.89-3-2v-3.68-.01c.91.44 1.92.681 3 .681s2.09-.24 3-.681z" fill="#d3b1a9"/></g><g><path d="m62 30v10c0-2.03-.75-3.88-2-5.29-1.46-1.66-3.61-2.71-6-2.71h-2c-1.66 0-3-1.34-3-3v-4.99-.01c1.37-1.1 3.11-2 5-2 4.42 0 8 3.58 8 8z" fill="#fc6e51"/></g><g><path d="m49 29c0 1.66-1.34 3-3 3v-4.99-.01c.01-1.66 1.34-2.99 3-2.99z" fill="#e9573f"/></g><g><path d="m40 18.01h-1l-7-12.01-7 12.01h-1-2.91c-.7-1.53-1.09-3.22-1.09-5.01 0-6.63 5.37-12 12-12 6.62 0 12 5.37 12 12 0 1.79-.39 3.49-1.1 5.02l-.021-.01z" fill="#5d9cec"/></g><g><path d="m40 18.01h2.88l.021.01c-1.901 4.12-6.071 6.98-10.901 6.98-4.84 0-9.01-2.87-10.91-6.99h2.91 1 7 7z" fill="#a0d468"/></g><g><path d="m32 6v12.01h-7z" fill="#656d78"/></g><g><path d="m32 6 7 12.01h-7z" fill="#545c66"/></g><g><path d="m18 30.5v1.37c-1.72-2.24-2.76-2.65-4-2.39l2-4.061c1.24 1.331 2 3.121 2 5.081z" fill="#f6bb42"/></g><g><path d="m18 31.87v3.13c0 2.79-1.63 5.2-4 6.31-.91.44-1.92.681-3 .681s-2.09-.24-3-.681c-2.37-1.11-4-3.52-4-6.31v-3.86c5.81.67 8.13-1.27 10-1.659 1.24-.261 2.28.149 4 2.389z" fill="#eac6bb"/></g><g><path d="m8 45c0 1.11 1.34 2 3 2s3-.89 3-2h3c1.66 0 3 1.34 3 3v4 .03h-18v-.03-4c0-1.66 1.34-3 3-3z" fill="#48cfad"/></g><g><path d="m4 31.14c-.32-.04-.65-.08-1-.14v-.5c0-4.14 3.36-7.5 7.5-7.5 2.18 0 4.14.93 5.5 2.42l-2 4.061c-1.87.389-4.19 2.329-10 1.659z" fill="#ffce54"/></g><g><path d="m14 41.32v3.68c0 1.11-1.34 2-3 2s-3-.89-3-2v-3.68-.01c.91.44 1.92.681 3 .681s2.09-.24 3-.681z" fill="#d3b1a9"/></g></g><g><g><path d="m4.001 36.002c-.553 0-1-.447-1-1v-3.867c0-.553.447-1 1-1s1 .447 1 1v3.867c0 .553-.447 1-1 1z"/></g><g><path d="m18.001 36.002c-.553 0-1-.447-1-1v-4.5c0-.553.447-1 1-1s1 .447 1 1v4.5c0 .553-.447 1-1 1z"/></g><g><path d="m18.001 31.502c-.553 0-1-.447-1-1 0-3.584-2.916-6.5-6.501-6.5-3.584 0-6.499 2.916-6.499 6.5 0 .553-.447 1-1 1s-1-.447-1-1c0-4.687 3.813-8.5 8.499-8.5 4.688 0 8.501 3.813 8.501 8.5 0 .553-.447 1-1 1z"/></g><g><path d="m18.002 32.873c-.301 0-.598-.135-.795-.392-1.931-2.523-2.456-2.313-4.414-1.538-1.878.743-4.716 1.869-9.948 1.042-.545-.086-.918-.598-.831-1.144.085-.545.598-.922 1.144-.831 4.693.741 7.123-.223 8.899-.927 2.409-.954 4.025-1.363 6.738 2.181.336.438.253 1.066-.186 1.402-.181.14-.395.207-.607.207z"/></g><g><path d="m14 30.479c-.147 0-.298-.033-.439-.103-.496-.243-.7-.843-.457-1.338l2-4.072c.243-.497.841-.701 1.338-.457.496.243.7.843.457 1.338l-2 4.072c-.174.354-.53.56-.899.56z"/></g><g><path d="m2.001 48.998c-.553 0-1-.447-1-1 0-2.206 1.794-4 4-4 .553 0 1 .447 1 1s-.447 1-1 1c-1.103 0-2 .897-2 2 0 .553-.447 1-1 1z"/></g><g><path d="m8.001 46.004h-3c-.553 0-1-.447-1-1s.447-1 1-1h3c.553 0 1 .447 1 1s-.447 1-1 1z"/></g><g><path d="m2.001 53.002c-.553 0-1-.447-1-1v-4.004c0-.553.447-1 1-1s1 .447 1 1v4.004c0 .553-.447 1-1 1z"/></g><g><path d="m20.001 48.998c-.553 0-1-.447-1-1 0-1.103-.897-2-2-2-.553 0-1-.447-1-1s.447-1 1-1c2.206 0 4 1.794 4 4 0 .553-.447 1-1 1z"/></g><g><path d="m17.001 46.004h-3c-.553 0-1-.447-1-1s.447-1 1-1h3c.553 0 1 .447 1 1s-.447 1-1 1z"/></g><g><path d="m20.001 53.002c-.553 0-1-.447-1-1v-4.004c0-.553.447-1 1-1s1 .447 1 1v4.004c0 .553-.447 1-1 1z"/></g><g><path d="m8.001 46.004c-.553 0-1-.447-1-1v-3.684c0-.553.447-1 1-1s1 .447 1 1v3.684c0 .553-.447 1-1 1z"/></g><g><path d="m14.001 45.998c-.553 0-1-.447-1-1v-3.678c0-.553.447-1 1-1s1 .447 1 1v3.678c0 .553-.447 1-1 1z"/></g><g><path d="m11.001 42.994c-4.411 0-8-3.587-8-7.996 0-.553.447-1 1-1s1 .447 1 1c0 3.307 2.691 5.996 6 5.996s6-2.689 6-5.996c0-.553.447-1 1-1s1 .447 1 1c0 4.409-3.589 7.996-8 7.996z"/></g><g><path d="m45.999 36.002c-.553 0-1-.447-1-1v-8.004c0-.553.447-1 1-1s1 .447 1 1v8.004c0 .553-.447 1-1 1z"/></g><g><path d="m59.999 36.002c-.553 0-1-.447-1-1v-.293c0-.553.447-1 1-1s1 .447 1 1v.293c0 .553-.447 1-1 1z"/></g><g><path d="m43.999 48.998c-.553 0-1-.447-1-1 0-2.206 1.794-4 4-4 .553 0 1 .447 1 1s-.447 1-1 1c-1.103 0-2 .897-2 2 0 .553-.447 1-1 1z"/></g><g><path d="m49.999 46.004h-3c-.553 0-1-.447-1-1s.447-1 1-1h3c.553 0 1 .447 1 1s-.447 1-1 1z"/></g><g><path d="m43.999 53.002c-.553 0-1-.447-1-1v-4.004c0-.553.447-1 1-1s1 .447 1 1v4.004c0 .553-.447 1-1 1z"/></g><g><path d="m61.999 48.998c-.553 0-1-.447-1-1 0-1.103-.897-2-2-2-.553 0-1-.447-1-1s.447-1 1-1c2.206 0 4 1.794 4 4 0 .553-.447 1-1 1z"/></g><g><path d="m58.999 46.004h-3c-.553 0-1-.447-1-1s.447-1 1-1h3c.553 0 1 .447 1 1s-.447 1-1 1z"/></g><g><path d="m61.999 53.002c-.553 0-1-.447-1-1v-4.004c0-.553.447-1 1-1s1 .447 1 1v4.004c0 .553-.447 1-1 1z"/></g><g><path d="m49.999 46.004c-.553 0-1-.447-1-1v-3.684c0-.553.447-1 1-1s1 .447 1 1v3.684c0 .553-.447 1-1 1z"/></g><g><path d="m55.999 45.998c-.553 0-1-.447-1-1v-3.678c0-.553.447-1 1-1s1 .447 1 1v3.678c0 .553-.447 1-1 1z"/></g><g><path d="m52.999 42.994c-4.411 0-8-3.587-8-7.996 0-.553.447-1 1-1s1 .447 1 1c0 3.307 2.691 5.996 6 5.996s6-2.689 6-5.996c0-.553.447-1 1-1s1 .447 1 1c0 4.409-3.589 7.996-8 7.996z"/></g><g><path d="m20 60.002c-.553 0-1-.447-1-1 0-3.309 2.691-6 6-6 .553 0 1 .447 1 1s-.447 1-1 1c-2.206 0-4 1.794-4 4 0 .553-.447 1-1 1z"/></g><g><path d="m28 55.002h-3c-.553 0-1-.447-1-1s.447-1 1-1h3c.553 0 1 .447 1 1s-.447 1-1 1z"/></g><g><path d="m20 64.002c-.553 0-1-.447-1-1v-4c0-.553.447-1 1-1s1 .447 1 1v4c0 .553-.447 1-1 1z"/></g><g><path d="m44 60.002c-.553 0-1-.447-1-1 0-2.206-1.794-4-4-4-.553 0-1-.447-1-1s.447-1 1-1c3.309 0 6 2.691 6 6 0 .553-.447 1-1 1z"/></g><g><path d="m39 55.002h-3c-.553 0-1-.447-1-1s.447-1 1-1h3c.553 0 1 .447 1 1s-.447 1-1 1z"/></g><g><path d="m44 64.002c-.553 0-1-.447-1-1v-4c0-.553.447-1 1-1s1 .447 1 1v4c0 .553-.447 1-1 1z"/></g><g><path d="m28 55.002c-.553 0-1-.447-1-1v-3.936c0-.553.447-1 1-1s1 .447 1 1v3.936c0 .553-.447 1-1 1z"/></g><g><path d="m36 55.002c-.553 0-1-.447-1-1v-3.936c0-.553.447-1 1-1s1 .447 1 1v3.936c0 .553-.447 1-1 1z"/></g><g><path d="m31.999 52.002c-5.514 0-9.999-4.485-9.999-9.998 0-.553.447-1 1-1s1 .447 1 1c0 4.41 3.588 7.998 7.999 7.998 4.412 0 8.001-3.588 8.001-7.998 0-.553.447-1 1-1s1 .447 1 1c0 5.513-4.486 9.998-10.001 9.998z"/></g><g><path d="m23 43.053c-.553 0-1-.447-1-1v-6.051c0-.553.447-1 1-1s1 .447 1 1v6.051c0 .552-.447 1-1 1z"/></g><g><path d="m41 43.004c-.553 0-1-.447-1-1v-6.002c0-.553.447-1 1-1s1 .447 1 1v6.002c0 .553-.447 1-1 1z"/></g><g><path d="m41 37.002c-.553 0-1-.447-1-1 0-1.654-1.346-3-3-3-.553 0-1-.447-1-1s.447-1 1-1c2.757 0 5 2.243 5 5 0 .553-.447 1-1 1z"/></g><g><path d="m37 33.002c-.553 0-1-.447-1-1v-4c0-.553.447-1 1-1s1 .447 1 1v4c0 .553-.447 1-1 1z"/></g><g><path d="m37 29.016h-6c-.553 0-1-.447-1-1s.447-1 1-1h6c.553 0 1 .447 1 1s-.447 1-1 1z"/></g><g><path d="m23 37.002c-.553 0-1-.447-1-1 0-4.963 4.037-9 9-9 .553 0 1 .447 1 1s-.447 1-1 1c-3.859 0-7 3.141-7 7 0 .553-.447 1-1 1z"/></g><g><g><path d="m40.999 40.027c-.192 0-.387-.056-.559-.171l-3-2.025c-.458-.31-.578-.931-.27-1.389.309-.457.93-.577 1.389-.27l3 2.025c.458.31.578.931.27 1.389-.193.287-.509.441-.83.441z"/></g><g><path d="m32.5 39.002c-3.612 0-6.687-1.008-6.815-1.051-.523-.175-.807-.74-.634-1.264.174-.524.74-.809 1.264-.635.029.01 2.908.949 6.186.949 3.178 0 5.04-.888 5.059-.897.494-.239 1.095-.038 1.337.457.243.494.043 1.09-.449 1.336-.093.045-2.262 1.105-5.948 1.105z"/></g><g><path d="m23.001 40.027c-.321 0-.637-.154-.83-.44-.309-.458-.188-1.079.27-1.389l3-2.025c.458-.308 1.079-.188 1.389.27.309.458.188 1.079-.27 1.389l-3 2.025c-.172.115-.367.17-.559.17z"/></g></g><g><path d="m61.999 30.998c-.553 0-1-.447-1-1 0-3.859-3.141-7-7-7-1.782 0-3.362.968-4.374 1.78-.432.345-1.06.276-1.406-.154-.346-.431-.276-1.061.154-1.406 1.81-1.452 3.755-2.22 5.626-2.22 4.963 0 9 4.037 9 9 0 .553-.447 1-1 1z"/></g><g><path d="m61.999 40.998c-.553 0-1-.447-1-1 0-3.859-3.141-7-7-7-.553 0-1-.447-1-1s.447-1 1-1c4.963 0 9 4.037 9 9 0 .553-.447 1-1 1z"/></g><g><path d="m45.999 32.998c-.553 0-1-.447-1-1s.447-1 1-1c1.103 0 2-.897 2-2 0-.553.447-1 1-1s1 .447 1 1c0 2.206-1.794 4-4 4z"/></g><g><path d="m45.999 28.012c-.553 0-1-.447-1-1 0-2.206 1.794-4 4-4 .553 0 1 .447 1 1s-.447 1-1 1c-1.103 0-2 .897-2 2 0 .552-.447 1-1 1z"/></g><g><path d="m51.999 32.998c-2.206 0-4-1.794-4-4 0-.553.447-1 1-1s1 .447 1 1c0 1.103.897 2 2 2 .553 0 1 .447 1 1s-.447 1-1 1z"/></g><g><path d="m48.999 29.998c-.553 0-1-.447-1-1v-5c0-.553.447-1 1-1s1 .447 1 1v5c0 .553-.447 1-1 1z"/></g><g><path d="m61.999 40.998c-.553 0-1-.447-1-1v-10c0-.553.447-1 1-1s1 .447 1 1v10c0 .553-.447 1-1 1z"/></g><g><path d="m53.999 32.998h-2c-.553 0-1-.447-1-1s.447-1 1-1h2c.553 0 1 .447 1 1s-.447 1-1 1z"/></g><g><path d="m3.001 31.998c-.553 0-1-.447-1-1v-.496c0-.553.447-1 1-1s1 .447 1 1v.496c0 .553-.447 1-1 1z"/></g><g><path d="m31.997 25.998c-7.168 0-13-5.832-13-13s5.832-13 13-13 13 5.832 13 13-5.832 13-13 13zm0-24c-6.065 0-11 4.935-11 11s4.935 11 11 11 11-4.935 11-11-4.934-11-11-11z"/></g><g><path d="m11 48c-2.242 0-3.999-1.317-3.999-2.999 0-.553.447-1 1-1s1 .447 1 1c0 .407.778.999 1.999.999s2-.592 2-.999c0-.553.447-1 1-1s1 .447 1 1c0 1.682-1.757 2.999-4 2.999z"/></g><g><path d="m53 48c-2.242 0-3.999-1.317-3.999-2.999 0-.553.447-1 1-1s1 .447 1 1c0 .407.778.999 1.999.999s2-.592 2-.999c0-.553.447-1 1-1s1 .447 1 1c0 1.682-1.757 2.999-4 2.999z"/></g><g><path d="m31.999 56.999c-2.85 0-4.999-1.289-4.999-2.999 0-.553.447-1 1-1s1 .447 1 1c0 .249 1.063.999 2.999.999s3-.75 3-.999c0-.553.447-1 1-1s1 .447 1 1c0 1.71-2.149 2.999-5 2.999z"/></g><g><g><path d="m42.875 19.007h-21.784c-.553 0-1-.447-1-1s.447-1 1-1h21.784c.553 0 1 .447 1 1s-.447 1-1 1z"/></g><g><path d="m24.999 19.007c-.171 0-.345-.044-.503-.136-.477-.278-.638-.891-.36-1.368l7.003-12.005c.279-.477.893-.637 1.368-.36.477.278.638.891.36 1.368l-7.003 12.005c-.186.318-.521.496-.865.496z"/></g><g><path d="m39.006 19.007c-.344 0-.679-.178-.865-.496l-7.002-12.005c-.277-.478-.116-1.09.36-1.368.478-.276 1.09-.116 1.368.36l7.002 12.005c.277.478.116 1.09-.36 1.368-.158.092-.332.136-.503.136z"/></g><g><path d="m24 19.007c-.553 0-1-.447-1-1v-1c0-.553.447-1 1-1s1 .447 1 1v1c0 .553-.447 1-1 1z"/></g><g><path d="m40.005 19.007c-.553 0-1-.447-1-1v-1c0-.553.447-1 1-1s1 .447 1 1v1c0 .553-.447 1-1 1z"/></g><g><path d="m32.003 19.006c-.553 0-1-.447-1-1v-12.004c0-.553.447-1 1-1s1 .447 1 1v12.004c0 .553-.447 1-1 1z"/></g></g></g></svg>