<svg height="512" viewBox="0 0 128 128" width="512" xmlns="http://www.w3.org/2000/svg"><g><path d="m121.25 89.431h-44.431l-14.937-15.431h-55.132a5 5 0 0 1 -5-5 5 5 0 0 1 5-5h59.368l14.938 15.431h40.194a5 5 0 0 1 5 5 5 5 0 0 1 -5 5z" fill="#424242"/><path d="m64 1.75a55.244 55.244 0 0 0 -55.244 55.244v7.006h57.362l14.938 15.431h38.188v-22.437a55.244 55.244 0 0 0 -55.244-55.244z" fill="#5e8569"/><path d="m59 109.44h16.382v8.625h-16.382z" fill="#424242"/><g fill="#707070"><path d="m61.882 118.065h10.618v8.185h-10.618z"/><path d="m72.5 109.44v-24.47l-10.618-10.966v35.436z"/></g><g fill="#85bc94"><path d="m23.556 19.378a55.027 55.027 0 0 0 -14.594 33h28.913a5.251 5.251 0 0 0 5.25-5.25v-.25a5.249 5.249 0 0 1 5.25-5.25h3.5a5.251 5.251 0 0 0 5.25-5.25v-1.25a5.25 5.25 0 0 0 -5.25-5.25h-11.75a5.25 5.25 0 0 1 -5.25-5.25 5.25 5.25 0 0 0 -5.25-5.25z"/><path d="m93.105 62.175h-1.829a4.9 4.9 0 0 0 -4.9 4.9v.038a4.9 4.9 0 0 0 4.9 4.9h27.968v-15.019c0-1.556-.08-3.092-.206-4.616h-16.138a4.9 4.9 0 0 0 -4.9 4.9 4.9 4.9 0 0 1 -4.895 4.897z"/><path d="m67.375 54.378h7a4.25 4.25 0 0 0 4.25-4.25v-1.375a4.25 4.25 0 0 1 4.25-4.25h6.25a4.25 4.25 0 0 0 4.25-4.25v-4.253a4.25 4.25 0 0 0 -4.25-4.25h-13.25a4.25 4.25 0 0 0 -4.25 4.25v4.5a4.25 4.25 0 0 1 -4.25 4.25 4.25 4.25 0 0 0 -4.25 4.25v1.125a4.25 4.25 0 0 0 4.25 4.253z"/><path d="m72.043 2.34a4.287 4.287 0 0 0 -2.168 3.717v1.714a4.307 4.307 0 0 1 -4.266 4.307l-6.468.061a4.307 4.307 0 0 0 .041 8.614h46.494a55.135 55.135 0 0 0 -33.633-18.413z"/></g></g></svg>