<svg id="icons" enable-background="new 0 0 64 64" height="512" viewBox="0 0 64 64" width="512" xmlns="http://www.w3.org/2000/svg"><g><g><path d="m10 56c0 1.1-.9 2-2 2s-2-.9-2-2 .9-2 2-2 2 .9 2 2z" fill="#eac6bb"/></g><g><path d="m8 58c2.12 0 3.86 1.66 3.99 3.75-1.13.79-2.5 1.25-3.99 1.25s-2.86-.46-3.99-1.25c.13-2.09 1.86-3.75 3.99-3.75z" fill="#ac92ec"/></g><g><path d="m6 56c0 1.1.9 2 2 2-2.13 0-3.86 1.66-3.99 3.75-1.82-1.26-3.01-3.36-3.01-5.75 0-3.87 3.13-7 7-7s7 3.13 7 7c0 2.39-1.19 4.49-3.01 5.75-.13-2.09-1.87-3.75-3.99-3.75 1.1 0 2-.9 2-2s-.9-2-2-2-2 .9-2 2z" fill="#656d78"/></g><g><path d="m46.01 41h2.721c-3.2 5.95-9.5 10-16.73 10s-13.53-4.05-16.73-10h2.729 2 12 12z" fill="#a0d468"/></g><g><path d="m32 21v20h-12z" fill="#656d78"/></g><g><path d="m46.01 41h-2.01l-12-20-12 20h-2-2.73c-1.45-2.68-2.27-5.75-2.27-9 0-10.49 8.51-19 19-19s19 8.51 19 19c0 3.25-.82 6.32-2.27 9z" fill="#5d9cec"/></g><g><path d="m32 21 12 20h-12z" fill="#545c66"/></g><g><path d="m58 56c0 1.1-.9 2-2 2s-2-.9-2-2 .9-2 2-2 2 .9 2 2z" fill="#eac6bb"/></g><g><path d="m56 58c2.12 0 3.86 1.66 3.99 3.75-1.13.79-2.5 1.25-3.99 1.25s-2.86-.46-3.99-1.25c.13-2.09 1.86-3.75 3.99-3.75z" fill="#48cfad"/></g><g><path d="m54 56c0 1.1.9 2 2 2-2.13 0-3.86 1.66-3.99 3.75-1.82-1.26-3.01-3.36-3.01-5.75 0-3.87 3.13-7 7-7s7 3.13 7 7c0 2.39-1.19 4.49-3.01 5.75-.13-2.09-1.87-3.75-3.99-3.75 1.1 0 2-.9 2-2s-.9-2-2-2-2 .9-2 2z" fill="#656d78"/></g><g><path d="m58 8c0 1.1-.9 2-2 2s-2-.9-2-2 .9-2 2-2 2 .9 2 2z" fill="#eac6bb"/></g><g><path d="m56 10c2.12 0 3.86 1.66 3.99 3.75-1.13.79-2.5 1.25-3.99 1.25s-2.86-.46-3.99-1.25c.13-2.09 1.86-3.75 3.99-3.75z" fill="#ac92ec"/></g><g><path d="m54 8c0 1.1.9 2 2 2-2.13 0-3.86 1.66-3.99 3.75-1.82-1.26-3.01-3.36-3.01-5.75 0-3.87 3.13-7 7-7s7 3.13 7 7c0 2.39-1.19 4.49-3.01 5.75-.13-2.09-1.87-3.75-3.99-3.75 1.1 0 2-.9 2-2s-.9-2-2-2-2 .9-2 2z" fill="#656d78"/></g><g><path d="m8 10c2.12 0 3.86 1.66 3.99 3.75-1.13.79-2.5 1.25-3.99 1.25s-2.86-.46-3.99-1.25c.13-2.09 1.86-3.75 3.99-3.75z" fill="#48cfad"/></g><g><path d="m6 8c0 1.1.9 2 2 2-2.13 0-3.86 1.66-3.99 3.75-1.82-1.26-3.01-3.36-3.01-5.75 0-3.87 3.13-7 7-7s7 3.13 7 7c0 2.39-1.19 4.49-3.01 5.75-.13-2.09-1.87-3.75-3.99-3.75 1.1 0 2-.9 2-2s-.9-2-2-2-2 .9-2 2z" fill="#656d78"/></g><g><path d="m10 8c0 1.1-.9 2-2 2s-2-.9-2-2 .9-2 2-2 2 .9 2 2z" fill="#eac6bb"/></g></g><g><g><g><path d="m8 16c-4.411 0-8-3.589-8-8s3.589-8 8-8 8 3.589 8 8-3.589 8-8 8zm0-14c-3.309 0-6 2.691-6 6s2.691 6 6 6 6-2.691 6-6-2.691-6-6-6z"/></g><g><path d="m8 11c-1.654 0-3-1.346-3-3s1.346-3 3-3 3 1.346 3 3-1.346 3-3 3zm0-4c-.552 0-1 .448-1 1s.448 1 1 1 1-.448 1-1-.448-1-1-1z"/></g><g><path d="m11.99 14.75c-.524 0-.965-.408-.997-.938-.097-1.577-1.412-2.812-2.994-2.812s-2.896 1.235-2.994 2.812c-.033.552-.512.978-1.06.937-.551-.034-.971-.508-.937-1.06.163-2.629 2.354-4.689 4.991-4.689s4.828 2.06 4.99 4.688c.034.552-.386 1.025-.937 1.06-.02.001-.041.002-.062.002z"/></g></g><g><g><path d="m8 64c-4.411 0-8-3.589-8-8s3.589-8 8-8 8 3.589 8 8-3.589 8-8 8zm0-14c-3.309 0-6 2.691-6 6s2.691 6 6 6 6-2.691 6-6-2.691-6-6-6z"/></g><g><path d="m8 59c-1.654 0-3-1.346-3-3s1.346-3 3-3 3 1.346 3 3-1.346 3-3 3zm0-4c-.552 0-1 .448-1 1s.448 1 1 1 1-.448 1-1-.448-1-1-1z"/></g><g><path d="m11.99 62.75c-.524 0-.965-.408-.997-.938-.097-1.577-1.412-2.812-2.994-2.812s-2.896 1.235-2.994 2.812c-.033.552-.512.957-1.06.937-.551-.034-.971-.508-.937-1.06.163-2.629 2.354-4.689 4.991-4.689s4.828 2.06 4.99 4.688c.034.552-.386 1.025-.937 1.06-.02.001-.041.002-.062.002z"/></g></g><g><g><path d="m56 16c-4.411 0-8-3.589-8-8s3.589-8 8-8 8 3.589 8 8-3.589 8-8 8zm0-14c-3.309 0-6 2.691-6 6s2.691 6 6 6 6-2.691 6-6-2.691-6-6-6z"/></g><g><path d="m56 11c-1.654 0-3-1.346-3-3s1.346-3 3-3 3 1.346 3 3-1.346 3-3 3zm0-4c-.552 0-1 .448-1 1s.448 1 1 1 1-.448 1-1-.448-1-1-1z"/></g><g><path d="m59.99 14.75c-.524 0-.965-.408-.997-.938-.097-1.577-1.412-2.812-2.994-2.812s-2.896 1.235-2.994 2.812c-.033.552-.506.978-1.06.937-.551-.034-.971-.508-.937-1.06.163-2.629 2.354-4.689 4.991-4.689s4.828 2.06 4.99 4.688c.034.552-.386 1.025-.937 1.06-.02.001-.041.002-.062.002z"/></g></g><g><g><path d="m56 64c-4.411 0-8-3.589-8-8s3.589-8 8-8 8 3.589 8 8-3.589 8-8 8zm0-14c-3.309 0-6 2.691-6 6s2.691 6 6 6 6-2.691 6-6-2.691-6-6-6z"/></g><g><path d="m56 59c-1.654 0-3-1.346-3-3s1.346-3 3-3 3 1.346 3 3-1.346 3-3 3zm0-4c-.552 0-1 .448-1 1s.448 1 1 1 1-.448 1-1-.448-1-1-1z"/></g><g><path d="m59.99 62.75c-.524 0-.965-.408-.997-.938-.097-1.577-1.412-2.812-2.994-2.812s-2.896 1.235-2.994 2.812c-.033.552-.506.957-1.06.937-.551-.034-.971-.508-.937-1.06.163-2.629 2.354-4.689 4.991-4.689s4.828 2.06 4.99 4.688c.034.552-.386 1.025-.937 1.06-.02.001-.041.002-.062.002z"/></g></g><g><path d="m8 46c-.553 0-1-.447-1-1v-26c0-.553.447-1 1-1s1 .447 1 1v26c0 .553-.447 1-1 1z"/></g><g><path d="m45 57h-26c-.553 0-1-.447-1-1s.447-1 1-1h26c.553 0 1 .447 1 1s-.447 1-1 1z"/></g><g><path d="m45 9h-26c-.553 0-1-.447-1-1s.447-1 1-1h26c.553 0 1 .447 1 1s-.447 1-1 1z"/></g><g><path d="m56 46c-.553 0-1-.447-1-1v-26c0-.553.447-1 1-1s1 .447 1 1v26c0 .553-.447 1-1 1z"/></g><g><g><path d="m32 52c-11.028 0-20-8.972-20-20s8.971-20 19.998-20h.002c5.343 0 10.364 2.08 14.143 5.857 3.777 3.779 5.858 8.801 5.857 14.143.001 5.342-2.08 10.364-5.857 14.142-3.779 3.778-8.801 5.858-14.143 5.858zm.002-38c-.001 0-.001 0-.002 0-4.809 0-9.328 1.872-12.729 5.272-3.399 3.4-5.271 7.92-5.271 12.728 0 9.925 8.075 18 18 18 4.808 0 9.328-1.872 12.729-5.272 3.399-3.4 5.271-7.92 5.271-12.728s-1.872-9.328-5.271-12.729c-3.401-3.399-7.92-5.271-12.727-5.271z"/></g></g><g><g><path d="m48.737 42h-33.474c-.553 0-1-.447-1-1s.447-1 1-1h33.475c.553 0 1 .447 1 1s-.448 1-1.001 1z"/></g><g><g><path d="m20.003 42c-.175 0-.353-.046-.514-.143-.474-.284-.627-.898-.343-1.372l12-20.005c.284-.473.897-.627 1.372-.343.474.284.627.898.343 1.372l-12 20.005c-.187.313-.518.486-.858.486z"/></g><g><path d="m44.005 42c-.34 0-.671-.173-.858-.485l-12-20.005c-.284-.474-.131-1.088.343-1.372s1.088-.13 1.372.343l12 20.005c.284.474.131 1.088-.343 1.372-.162.096-.339.142-.514.142z"/></g><g><path d="m32.004 42c-.553 0-1-.447-1-1v-20.005c0-.553.447-1 1-1s1 .447 1 1v20.005c0 .553-.447 1-1 1z"/></g></g><g><path d="m46.006 42c-.553 0-1-.447-1-1v-1c0-.553.447-1 1-1s1 .447 1 1v1c0 .553-.447 1-1 1z"/></g><g><path d="m18.004 42c-.553 0-1-.447-1-1v-1c0-.553.447-1 1-1s1 .447 1 1v1c0 .553-.447 1-1 1z"/></g></g></g></svg>