<svg height="470pt" viewBox="0 -7 470.81253 470" width="470pt" xmlns="http://www.w3.org/2000/svg"><path d="m39.25 353.660156h78.5v47.097656h-78.5zm0 0" fill="#c8d952"/><path d="m353.25 353.660156h78.5v47.097656h-78.5zm0 0" fill="#c8d952"/><path d="m7.847656 353.660156h109.902344l117.75-204.101562 117.75 204.101562h109.902344l-204.101563-266.902344h-47.101562zm0 0" fill="#55b56a"/><path d="m117.75 400.757812 70.648438-23.550781 47.101562-227.648437-117.75 204.101562zm0 0" fill="#394d5c"/><path d="m353.25 400.757812-70.648438-23.550781-47.101562-227.648437 117.75 204.101562zm0 0" fill="#394d5c"/><g fill="#c8d952"><path d="m149.148438 86.757812h172.703124l-86.351562-78.5zm0 0"/><path d="m204.101562 440.011719h15.699219v15.699219h-15.699219zm0 0"/><path d="m188.398438 424.308594h15.703124v15.703125h-15.703124zm0 0"/><path d="m282.601562 440.011719h15.699219v15.699219h-15.699219zm0 0"/><path d="m266.898438 424.308594h15.703124v15.703125h-15.703124zm0 0"/><path d="m329.699219 440.011719h15.703125v15.699219h-15.703125zm0 0"/><path d="m141.300781 440.011719h15.699219v15.699219h-15.699219zm0 0"/><path d="m235.5 149.558594-47.101562 227.648437-70.648438 23.550781h235.5l-70.648438-23.550781zm0 0"/></g><path d="m204.101562 440.011719h15.699219v15.699219h-15.699219zm0 0"/><path d="m282.601562 440.011719h15.699219v15.699219h-15.699219zm0 0"/><path d="m329.699219 440.011719h15.703125v15.699219h-15.703125zm0 0"/><path d="m141.300781 440.011719h15.699219v15.699219h-15.699219zm0 0"/><path d="m469.382812 348.890625-194.453124-254.28125h46.921874c4.335938 0 7.847657-3.515625 7.847657-7.851563 0-2.210937-.929688-4.320312-2.566407-5.808593l-86.351562-78.5c-2.996094-2.71875-7.566406-2.71875-10.5625 0l-86.351562 78.5c-3.207032 2.917969-3.441407 7.882812-.527344 11.089843 1.488281 1.636719 3.597656 2.570313 5.808594 2.570313h46.917968l-194.449218 254.28125c-2.636719 3.441406-1.980469 8.367187 1.460937 11.003906 1.371094 1.046875 3.046875 1.613281 4.769531 1.613281h23.550782v39.25c0 4.335938 3.511718 7.851563 7.847656 7.851563h.003906 392.5c4.335938 0 7.851562-3.511719 7.851562-7.847656 0 0 0 0 0-.003907v-39.25h23.550782c4.332031 0 7.847656-3.511718 7.847656-7.847656 0-1.722656-.566406-3.398437-1.617188-4.769531zm-233.882812-330.023437 66.042969 60.039062h-132.085938zm-125.601562 374.042968h-62.800782v-31.402344h62.800782zm15.699218-37.148437 92.335938-160.046875-36.304688 175.476562-56.03125 18.675782zm40.523438 37.148437 24.761718-8.253906c2.65625-.886719 4.636719-3.117188 5.207032-5.855469l39.410156-190.5 39.410156 190.5c.566406 2.738281 2.550782 4.96875 5.207032 5.855469l24.757812 8.253906zm179.28125-3.042968-56.035156-18.675782-36.300782-175.476562 92.335938 160.042968zm78.5 3.042968h-62.800782v-31.402344h62.800782zm-66.121094-47.101562-115.480469-200.171875c-2.496093-3.753907-7.566406-4.777344-11.320312-2.28125-.90625.601562-1.679688 1.378906-2.28125 2.28125l-115.480469 200.171875h-89.484375l192.09375-251.199219h39.34375l192.09375 251.199219zm0 0"/><path d="m188.398438 424.308594h15.703124v15.703125h-15.703124zm0 0"/><path d="m266.898438 424.308594h15.703124v15.703125h-15.703124zm0 0"/></svg>